# xmcd
#
# Track frame offsets: 
#        150
#        26784
#        45016
#        65352
#        83064
#        101422
#        120455
#        138205
#        156240
#        178407
#        194398
#
# Disc length: 2808 seconds
#
# Revision: 2
# Processed by: cddbd v1.5.2PL0 Copyright (c) Steve Scherf et al.
# Submitted via: ExactAudioCopy v0.99pb3
#
DISCID=890af60b
DTITLE=Θάνος Πετρέλης - Θυμίζεις Κάτι Από Ελλάδα
DYEAR=2005
DGENRE=Pop-Folk
TTITLE0=Θυμίζεις Kάτι Aπό Ελλάδα
TTITLE1=Πως Ξεχνιέται Κάποια Σαν Εσένα
TTITLE2=Μεσάνυχτα Και Κάτι
TTITLE3=Μετά Απο Σένα Ξαναζώ
TTITLE4=Άδικα
TTITLE5=Κερνάω
TTITLE6=Μπόρα Είσαι Θα Περάσεις
TTITLE7=Χρόνια Είχα Έτσι Να Αισθανθώ
TTITLE8=Δεν Θα Χωρίσουμε Ποτέ
TTITLE9=Τα Τραγούδια Που Μιλούν Γι' Αγάπη
TTITLE10=Η Ωραία
EXTD=YEAR: 2005
EXTT0=
EXTT1=
EXTT2=
EXTT3=
EXTT4=
EXTT5=
EXTT6=
EXTT7=
EXTT8=
EXTT9=
EXTT10=
PLAYORDER=
